<svg xmlns="http://www.w3.org/2000/svg" x="0px" y="0px"
width="400" height="400"
viewBox="0 0 172 172"
style=" fill:#000000;"><g fill="none" fill-rule="nonzero" stroke="none" stroke-width="1" stroke-linecap="butt" stroke-linejoin="miter" stroke-miterlimit="10" stroke-dasharray="" stroke-dashoffset="0" font-family="none" font-weight="none" font-size="none" text-anchor="none" style="mix-blend-mode: normal"><path d="M0,172v-172h172v172z" fill="none"></path><g><path d="M119.57096,68.5764h-39.3794v34.8472h39.37768c10.11532,0 26.63936,-6.364 33.2218,-17.4236v-0.00172c-6.58072,-11.05788 -23.10648,-17.42188 -33.22008,-17.42188z" fill="#ffffff"></path><path d="M119.56924,106.32696h-39.37768c-1.60476,0 -2.90336,-1.30032 -2.90336,-2.90336v-34.8472c0,-1.60304 1.2986,-2.90508 2.90336,-2.90508h39.37768c11.78372,0 28.79108,7.20508 35.71924,18.84432c0.54352,0.91504 0.54352,2.0554 0,2.96872c-6.92816,11.63924 -23.93552,18.8426 -35.71924,18.8426zM83.09664,100.52024h36.4726c8.2388,0 23.04456,-5.15484 29.75428,-14.52024c-6.70972,-9.36712 -21.51548,-14.52024 -29.75428,-14.52024h-36.4726z" fill="#c12d32"></path><path d="M68.5764,77.2882c-1.59616,0 -2.90336,-1.3072 -2.90336,-2.90336c0,-1.5996 1.3072,-2.90508 2.90336,-2.90508c1.59616,0 2.90336,1.30548 2.90336,2.90508c0,1.59444 -1.3072,2.90336 -2.90336,2.90336zM56.95952,77.2882h-23.23204c-1.59616,0 -2.90336,-1.3072 -2.90336,-2.90336c0,-1.5996 1.3072,-2.90508 2.90336,-2.90508h23.23204c1.59616,0 2.90336,1.30548 2.90336,2.90508c0.00172,1.59444 -1.30548,2.90336 -2.90336,2.90336z" fill="#111827"></path><path d="M54.05616,88.90336h-34.8472c-1.60476,0 -2.90336,-1.30032 -2.90336,-2.90336c0,-1.60476 1.2986,-2.90336 2.90336,-2.90336h34.8472c1.60476,0 2.90336,1.30032 2.90336,2.90336c0,1.60304 -1.2986,2.90336 -2.90336,2.90336z" fill="#111827"></path><path d="M68.5764,100.52024h-23.23204c-1.59616,0 -2.90336,-1.30892 -2.90336,-2.90336c0,-1.5996 1.3072,-2.90508 2.90336,-2.90508h23.23204c1.59616,0 2.90336,1.30548 2.90336,2.90508c0,1.59444 -1.3072,2.90336 -2.90336,2.90336zM33.72748,100.52024c-1.59616,0 -2.90336,-1.30892 -2.90336,-2.90336c0,-1.5996 1.3072,-2.90508 2.90336,-2.90508c1.59616,0 2.90336,1.30548 2.90336,2.90508c0.00172,1.59444 -1.30548,2.90336 -2.90336,2.90336z" fill="#111827"></path><path d="M68.5764,42.43928h-8.7118c-1.60476,0 -2.90336,-1.30032 -2.90336,-2.90508c0,-1.60304 1.2986,-2.90336 2.90336,-2.90336h8.7118c1.60476,0 2.90336,1.30032 2.90336,2.90336c0,1.60648 -1.2986,2.90508 -2.90336,2.90508z" fill="#111827"></path><path d="M54.05616,54.05616h-5.80672c-1.59616,0 -2.90336,-1.3072 -2.90336,-2.90336c0,-1.5996 1.3072,-2.90508 2.90336,-2.90508h5.80672c1.59616,0 2.90336,1.30548 2.90336,2.90508c0,1.59444 -1.3072,2.90336 -2.90336,2.90336zM36.63256,54.05616c-1.59616,0 -2.90336,-1.3072 -2.90336,-2.90336c0,-1.5996 1.3072,-2.90508 2.90336,-2.90508c1.59616,0 2.90508,1.30548 2.90508,2.90508c-0.00172,1.59444 -1.30892,2.90336 -2.90508,2.90336zM25.0174,54.05616h-5.80844c-1.59616,0 -2.90336,-1.3072 -2.90336,-2.90336c0,-1.5996 1.3072,-2.90508 2.90336,-2.90508h5.80844c1.59616,0 2.90336,1.30548 2.90336,2.90508c0,1.59444 -1.3072,2.90336 -2.90336,2.90336z" fill="#111827"></path><path d="M45.34436,65.67132h-20.32696c-1.60476,0 -2.90508,-1.30032 -2.90508,-2.90336c0,-1.60476 1.2986,-2.90336 2.90508,-2.90336h20.32696c1.60476,0 2.90336,1.30032 2.90336,2.90336c0,1.60304 -1.2986,2.90336 -2.90336,2.90336z" fill="#111827"></path><path d="M109.23204,59.8646h-40.65564c-1.60476,0 -2.90336,-1.30032 -2.90336,-2.90336c0,-1.60304 1.2986,-2.90336 2.90336,-2.90336h40.65564c1.60476,0 2.90508,1.30032 2.90508,2.90336c0,1.60132 -1.30032,2.90336 -2.90508,2.90336z" fill="#111827"></path><path d="M109.23204,117.94384h-40.65564c-1.60476,0 -2.90336,-1.30032 -2.90336,-2.90336c0,-1.60304 1.2986,-2.90336 2.90336,-2.90336h40.65564c1.60476,0 2.90508,1.30032 2.90508,2.90336c0,1.60304 -1.30032,2.90336 -2.90508,2.90336z" fill="#111827"></path><path d="M45.34436,112.1354h-20.32696c-1.60476,0 -2.90508,-1.30032 -2.90508,-2.90336c0,-1.60304 1.2986,-2.90336 2.90508,-2.90336h20.32696c1.60476,0 2.90336,1.30032 2.90336,2.90336c0,1.60304 -1.2986,2.90336 -2.90336,2.90336z" fill="#111827"></path><path d="M54.05616,123.75228h-5.80672c-1.59616,0 -2.90336,-1.3072 -2.90336,-2.90508c0,-1.59788 1.3072,-2.90336 2.90336,-2.90336h5.80672c1.59616,0 2.90336,1.30548 2.90336,2.90336c0,1.59788 -1.3072,2.90508 -2.90336,2.90508zM36.63256,123.75228c-1.59616,0 -2.90336,-1.3072 -2.90336,-2.90508c0,-1.59788 1.3072,-2.90336 2.90336,-2.90336c1.59616,0 2.90508,1.30548 2.90508,2.90336c-0.00172,1.59788 -1.30892,2.90508 -2.90508,2.90508zM25.0174,123.75228h-5.80844c-1.59616,0 -2.90336,-1.3072 -2.90336,-2.90508c0,-1.59788 1.3072,-2.90336 2.90336,-2.90336h5.80844c1.59616,0 2.90336,1.30548 2.90336,2.90336c0,1.59788 -1.3072,2.90508 -2.90336,2.90508z" fill="#111827"></path><path d="M68.5764,135.36744h-8.7118c-1.60476,0 -2.90336,-1.30032 -2.90336,-2.90336c0,-1.60304 1.2986,-2.90336 2.90336,-2.90336h8.7118c1.60476,0 2.90336,1.30032 2.90336,2.90336c0,1.60304 -1.2986,2.90336 -2.90336,2.90336z" fill="#111827"></path><path d="M114.77904,94.7118h-22.9706c-1.59616,0 -2.90336,-1.3072 -2.90336,-2.90336c0,-1.59788 1.3072,-2.90336 2.90336,-2.90336h22.97232c0.98728,0 1.97284,-0.03096 2.90336,-0.11696c1.68388,-0.17544 3.02032,1.07328 3.13556,2.6402c0.14448,1.59788 -1.04576,2.9928 -2.64364,3.13728c-1.13348,0.08772 -2.26524,0.1462 -3.397,0.1462zM129.18404,91.86692c-1.19024,0 -2.23772,-0.69832 -2.67116,-1.80084c-0.2924,-0.6966 -0.2924,-1.51016 0,-2.20848c0.28896,-0.72584 0.8428,-1.27624 1.56864,-1.56692c1.45168,-0.6106 3.19232,0.1462 3.80292,1.56692c0.60888,1.48264 -0.11696,3.19404 -1.59616,3.80464c-0.35088,0.14448 -0.72756,0.20468 -1.10424,0.20468z" fill="#c12d32"></path><path d="M120.84892,83.09664c-1.60476,0 -2.90336,-1.30032 -2.90336,-2.90336v-11.61688c0,-1.60304 1.2986,-2.90508 2.90336,-2.90508c1.60476,0 2.90336,1.30032 2.90336,2.90508v11.61516c0,1.60304 -1.2986,2.90508 -2.90336,2.90508z" fill="#c12d32"></path><g fill="#c12d32"><path d="M91.80844,83.09664c-1.60476,0 -2.90336,-1.30032 -2.90336,-2.90336v-11.61688c0,-1.60304 1.2986,-2.90508 2.90336,-2.90508c1.60476,0 2.90336,1.30032 2.90336,2.90508v11.61516c0,1.60304 -1.2986,2.90508 -2.90336,2.90508z"></path></g></g></g></svg>