<svg xmlns="http://www.w3.org/2000/svg" x="0px" y="0px"
width="250" height="250"
viewBox="0 0 172 172"
style=" fill:#000000;"><g fill="none" fill-rule="nonzero" stroke="none" stroke-width="1" stroke-linecap="butt" stroke-linejoin="miter" stroke-miterlimit="10" stroke-dasharray="" stroke-dashoffset="0" font-family="none" font-weight="none" font-size="none" text-anchor="none" style="mix-blend-mode: normal"><path d="M0,172v-172h172v172z" fill="none"></path><g fill="#c12d32"><path d="M24.15391,13.76c-1.11916,-0.02465 -2.18034,0.49675 -2.8447,1.39772c-0.66436,0.90097 -0.84884,2.06884 -0.49452,3.13072l10.32,30.96c0.18662,0.56223 0.51524,1.06674 0.95406,1.46469l72.24,65.36c0.14254,0.12667 0.29536,0.24128 0.45688,0.34265l-8.10281,16.20562c-0.66187,1.32449 -0.40207,2.92389 0.645,3.97078l6.88,6.88c1.34342,1.34287 3.52095,1.34287 4.86437,0l11.65031,-11.65031l16.8775,12.65813c0,7.55869 6.20131,13.76 13.76,13.76c7.55869,0 13.76,-6.20131 13.76,-13.76c0,-7.55869 -6.20131,-13.76 -13.76,-13.76l-12.65813,-16.8775l11.65031,-11.65031c1.34287,-1.34342 1.34287,-3.52095 0,-4.86437l-6.88,-6.88c-0.65815,-0.65846 -1.55506,-1.02207 -2.48594,-1.00781c-0.51589,0.00807 -1.02336,0.13206 -1.48485,0.36281l-16.20562,8.10281c-0.10137,-0.16152 -0.21598,-0.31433 -0.34265,-0.45688l-65.36,-72.24c-0.39795,-0.43882 -0.90246,-0.76745 -1.46469,-0.95406l-30.96,-10.32c-0.3275,-0.10878 -0.66951,-0.16767 -1.01453,-0.17469zM147.77219,13.76c-0.31578,0.01333 -0.63188,0.07149 -0.94062,0.17469l-30.96,10.32c-0.56072,0.1892 -1.06237,0.51374 -1.45797,0.95406l-23.77094,26.27703l4.63594,5.1264l23.62312,-26.11578l23.58281,-7.86094l-7.86094,23.58281l-26.80781,24.25469l4.61578,5.09953l27.47969,-24.85937c0.44032,-0.39904 0.76503,-0.90397 0.94735,-1.46469l10.32,-30.96c0.4128,-1.2384 0.09551,-2.5987 -0.82641,-3.52062c-0.69144,-0.69144 -1.63265,-1.0478 -2.58,-1.00781zM29.52219,22.64219l23.57609,7.85422l63.84828,70.58047l-4.96516,2.48594c-0.66581,0.3329 -1.20569,0.87278 -1.53859,1.53859l-2.48594,4.96516l-70.58047,-63.84828zM60.05219,85.28781l-10.99859,12.16094c-0.13144,0.14526 -0.18678,0.32411 -0.28891,0.48375l-16.26609,-8.12969c-0.51617,-0.25886 -1.08919,-0.38363 -1.66625,-0.36281c-0.86785,0.03302 -1.69109,0.39304 -2.30453,1.00781l-6.88,6.88c-1.34287,1.34342 -1.34287,3.52095 0,4.86437l11.65031,11.65031l-12.65812,16.8775c-7.55869,0 -13.76,6.20131 -13.76,13.76c0,7.55869 6.20131,13.76 13.76,13.76c7.55869,0 13.76,-6.20131 13.76,-13.76l16.8775,-12.65813l11.65031,11.65031c1.34342,1.34287 3.52095,1.34287 4.86437,0l6.88,-6.88c1.04707,-1.04689 1.30687,-2.6463 0.645,-3.97078l-8.12969,-16.25265c0.16045,-0.10214 0.33764,-0.16397 0.48375,-0.29562l13.20235,-11.94594l-5.12641,-4.64265l-11.70406,10.58203l-2.48594,-4.96516c-0.3329,-0.66581 -0.87278,-1.20569 -1.53859,-1.53859l-4.97188,-2.48594l10.105,-11.17328zM31.63859,97.06578l24.27484,12.14078l12.14078,24.27484l-2.69422,2.69422l-10.93813,-10.93813c-0.21622,-0.29999 -0.47938,-0.56316 -0.77937,-0.77937c-0.00892,-0.00676 -0.01788,-0.01348 -0.02687,-0.02016l-12.9336,-12.94031c-0.22632,-0.32058 -0.50582,-0.60008 -0.8264,-0.8264l-10.91125,-10.91125zM140.3614,97.06578l2.69422,2.69422l-10.93141,10.9314c-0.31172,0.22203 -0.58422,0.49453 -0.80625,0.80625l-12.95375,12.95375c-0.31467,0.22347 -0.5895,0.4983 -0.81297,0.81297l-10.91125,10.91125l-2.69422,-2.69422l12.14078,-24.27484zM38.21625,118.76063l8.14312,8.14312l-13.99515,10.5014c-1.15679,-1.90194 -2.74744,-3.49258 -4.64937,-4.64937zM133.78375,118.76063l10.5014,13.99515c-1.90194,1.15679 -3.49258,2.74744 -4.64937,4.64937l-13.99515,-10.5014zM20.64,137.6c3.84046,0 6.88,3.03954 6.88,6.88c0,3.84046 -3.03954,6.88 -6.88,6.88c-3.84046,0 -6.88,-3.03954 -6.88,-6.88c0,-3.84046 3.03954,-6.88 6.88,-6.88zM151.36,137.6c3.84046,0 6.88,3.03954 6.88,6.88c0,3.84046 -3.03954,6.88 -6.88,6.88c-3.84046,0 -6.88,-3.03954 -6.88,-6.88c0,-3.84046 3.03954,-6.88 6.88,-6.88z"></path></g></g></svg>