<svg xmlns="http://www.w3.org/2000/svg" x="0px" y="0px"
width="250" height="250"
viewBox="0 0 172 172"
style=" fill:#000000;"><g fill="none" fill-rule="nonzero" stroke="none" stroke-width="1" stroke-linecap="butt" stroke-linejoin="miter" stroke-miterlimit="10" stroke-dasharray="" stroke-dashoffset="0" font-family="none" font-weight="none" font-size="none" text-anchor="none" style="mix-blend-mode: normal"><path d="M0,172v-172h172v172z" fill="none"></path><g fill="#c12d32"><path d="M86,6.88c-43.6552,0 -79.12,35.4648 -79.12,79.12c0,43.6552 35.4648,79.12 79.12,79.12c43.6552,0 79.12,-35.4648 79.12,-79.12c0,-43.6552 -35.4648,-79.12 -79.12,-79.12zM86,13.76c39.9368,0 72.24,32.3032 72.24,72.24c0,39.9368 -32.3032,72.24 -72.24,72.24c-39.9368,0 -72.24,-32.3032 -72.24,-72.24c0,-39.9368 32.3032,-72.24 72.24,-72.24zM86,52.55406l-58.53375,33.44594l5.22719,2.98985l53.30656,30.45609v-25.5514l44.72,25.5514v-66.89187l-44.72,25.5514zM79.12,64.41265v17.62328v7.92813v17.62328l-37.77953,-21.58735zM123.84,64.41265v43.17469l-37.77953,-21.58735z"></path></g></g></svg>